<svg xmlns="http://www.w3.org/2000/svg" width="32" height="32" viewBox="0 0 24 24">
  <style>
    path {
      fill: black;
    }

    @media (prefers-color-scheme: dark) {
      path {
        fill: white;
      }
    }
  </style>
  <path
    d="M9 18q-.825 0-1.413-.588T7 16V4q0-.825.588-1.413T9 2h9q.825 0 1.413.588T20 4v12q0 .825-.588 1.413T18 18H9Zm0-2h9V4H9v12Zm-4 6q-.825 0-1.413-.588T3 20V7q0-.425.288-.713T4 6q.425 0 .713.288T5 7v13h10q.425 0 .713.288T16 21q0 .425-.288.713T15 22H5ZM9 4v12V4Z" />
</svg>